<svg xmlns="http://www.w3.org/2000/svg" viewBox="0 0 656.14 196.29"><defs><style>.cls-1{fill:#364458;}</style></defs><title>ashok</title><g id="Layer_2" data-name="Layer 2"><g id="Layer_1-2" data-name="Layer 1"><path class="cls-1" d="M655.74,20.05a134.6,134.6,0,0,0-39.4,6.2c-3.4,1.1-6.8,2.3-10.1,3.7l-.8.4a7.37,7.37,0,0,1-.4,1.4c-4.2,13.2-8.3,26.3-12.5,39.5-2.1,6.8-4.3,13.5-6.4,20.3-1.1,3.3-2.1,6.7-3.2,10a79.79,79.79,0,0,1-3.4,9.3,18,18,0,0,1-6.1,7,88.4,88.4,0,0,1-8.5,4.8c-2.8,1.4-5.7,2.6-8.5,4a15.14,15.14,0,0,0-6,4.9c-4,6.1,6.6,7.1,10.3,6.9a52.2,52.2,0,0,0,9.6-1.7c3.4-.8,6.7-1.6,10.1-2.3a258.54,258.54,0,0,1,40.1-5l.2-1.2c2.8-14.3,6.3-28.4,10.4-42.3,4.2-14.2,9.1-28.1,14.6-41.8l9-20.8,1.4-3.1C655.94,20.05,655.84,20.05,655.74,20.05Z"/><path class="cls-1" d="M554.14,122.85c4.1-2.6,8.6-4.7,12.7-7.2a34.49,34.49,0,0,0,5.3-3.9c1.2-1.1,2.8-2.5,2.3-4.3-.4-1.5-2-2.2-3.3-2.6a25.17,25.17,0,0,0-6.7-.9,41.57,41.57,0,0,0-14,1.9,12.8,12.8,0,0,0-1.8.8,1.21,1.21,0,0,0-.1.5h0a233,233,0,0,0-4.2,23.6v.1a32.89,32.89,0,0,1,9.4-7.8A.52.52,0,0,0,554.14,122.85Z"/><path class="cls-1" d="M571.74,38.15c-2.7,6.9-5.4,13.8-8.3,20.7,2.1-.5,4.3-.9,6.4-1.3Z"/><path class="cls-1" d="M576,104.55a5.5,5.5,0,0,1,.9.7l.6-1.9c3.1-11.7,6.6-23.2,10.2-34.7,3.8-12.1,7.8-24.2,11.6-36.3,1.7-5.4,3.4-10.8,5-16.3a4.4,4.4,0,0,0,.2-1l.6-1.8c.1-.3.2-.7.3-1a2.49,2.49,0,0,0,.1-.8A29.83,29.83,0,0,0,588.64.85a41.1,41.1,0,0,0-12.1-.7c-4.1.2-8.2.7-12.3,1.3-8.2,1.3-16.4,3-24.6,4.9s-16.3,3.9-24.4,6.2c-8.8,2.4-17.5,5.1-26.1,8-.1,0-.1.1-.2.1-.3.1-.5.3-.8.4a6.37,6.37,0,0,0-.2.7h0c-3.4,12.3-6.8,24.5-10.2,36.8-3.4,12.5-6.8,24.9-10.1,37.4l-5.7,21.3v.3h-.1c-.6.1-.3,1.1.2.9,15.6-3.8,31.1-7.6,46.9-10.7a363.9,363.9,0,0,1,47.5-6.5C563,100.65,570.84,100.05,576,104.55ZM507.44,81a77.45,77.45,0,0,1-3.6,7c-2.3,3.7-6.3,7.3-11.1,6.7-4.5-.6-6.9-5-7.1-8.9v-2.5a34.82,34.82,0,0,1,.7-6.4c.9-4.3,1.9-8.6,2.9-12.9s2-8.8,3.1-13.2a110,110,0,0,1,3.7-12.4,31.19,31.19,0,0,1,1.6-4.1,11.42,11.42,0,0,1,2.6-4.2,3.45,3.45,0,0,1,4.8-.2c1.7,1.6,1.3,4.1.8,6.2a66.93,66.93,0,0,1-2,7.7c-3,10.2-7.1,20.2-8.8,30.7-.4,2.7-.9,5.7-.3,8.3.1.4.3,1.1,1,1,.4-.1.7-.6.9-.8.3-.5.6-1.1.9-1.7.6-1.2,1.2-2.3,1.8-3.5a124.37,124.37,0,0,0,6-15.3c1.8-5.3,3.5-10.6,5.3-15.8s3.5-10.4,5.6-15.4c.8-2,2-4.4,4.1-5.5,1.5-.9,3.8-.7,4.5,1a9.18,9.18,0,0,1,.1,3.7,27,27,0,0,1-.8,3.9c-.6,2.7-1.4,5.4-2.1,8a245.28,245.28,0,0,1-11.2,31.1C509.84,76,508.64,78.45,507.44,81Zm39.8-49.5a3.89,3.89,0,0,0-2.8.1,10.18,10.18,0,0,0-4.3,2.4,14.48,14.48,0,0,0-2.4,4.6c-1.3,4.8.2,8.9,2.5,12.6,2.1,3.4,4.5,6.6,4.9,10.8.5,4.4-.9,9.1-2.9,13.4-1.8,3.8-4.2,8-7.7,10.5a10.42,10.42,0,0,1-11.2.7c-3.1-1.9-4.8-5.6-4.9-9.5a17.24,17.24,0,0,1,1.4-7.3,15,15,0,0,1,3.3-5.7c1.2-1.2,3.2-2,4.6-1s1.2,3.2.8,4.9c-.5,2.4-1.7,4.9-1.5,7.4a3,3,0,0,0,1.8,2.8,4.47,4.47,0,0,0,3.3-.7c4.3-2.8,4.5-8.5,3.3-12.3-1.5-4.4-4.6-7.9-6.2-12.3a26.25,26.25,0,0,1-1-13.4c.8-4.5,2.6-8.8,6.3-12,3.4-2.9,7.9-5,12.1-5a9.19,9.19,0,0,1,8.8,6.3c1.2,3.9.3,8.3-1.9,12.2a21.47,21.47,0,0,1-4.1,5.3c-1.4,1.2-3.3,2-4.6.8-1.5-1.4-.8-3.8.1-5.6,1-2.2,2.4-4.3,3.1-6.6C547.94,33.75,548.44,32.05,547.24,31.45Zm.4,54.1c-1.4-.7-1.2-2.9-.9-4.3a51,51,0,0,1,2-6.3c.8-2.2,1.8-4.3,2.7-6.5,3.7-8.8,7.3-17.7,11-26.5,1.8-4.4,3.6-8.7,5.4-13.1.7-1.7,1.5-3.4,2.3-5.1,1.4-3.4,3.5-6.7,7-7.7,5.8-1.8,4,6.8,3.6,10.1-1.2,10.6-2.3,21.2-3.5,31.8-.6,5.3-1.2,10.5-1.7,15.8a31,31,0,0,1-1,6.7c-.5,1.7-1.7,3.8-3.6,4.2-1.6.4-2.4-.9-2.7-2.3a32.76,32.76,0,0,1,0-7c.1-3.2.4-6.4.7-9.6a60.33,60.33,0,0,0-9.3,1.6c-.8,1.8-1.6,3.5-2.4,5.3-1.8,3.8-3.6,7.8-6.2,11.1C550.34,85,548.94,86.15,547.64,85.55Z"/><path class="cls-1" d="M266.24,155.05c-6.3.9-12.3,3.4-18.6,4-9.9.9-19.4-2.1-28.8-4.9l2.4-5.7c2.3-5.7,4.3-11.5,6.3-17.3,2.1-6.3,4.1-12.6,5.8-19a141.77,141.77,0,0,0,3.9-19.4,67.12,67.12,0,0,0,.6-10,28.65,28.65,0,0,0-1.1-7.7,9.81,9.81,0,0,0-3.6-5.1,7.13,7.13,0,0,0-6.5-.6c-5.5,2.1-7.1,8.5-8.3,13.7-2.9,12.2-3.3,25.2-9.3,36.4-1.2,2.3-8.3,14-11.3,9.5-1.4-2.1-1-4.9-.8-7.3a75.37,75.37,0,0,1,1.6-9.3c2.8-11.8,8-23.1,9.1-35.3.3-3.9-.5-9.6-5.2-10.2-3.7-.5-6.2,2.1-7.9,5.1-.1.1-.2.1-.2.3a.6.6,0,0,0-.1.4,43.93,43.93,0,0,0-2,4.7,81.76,81.76,0,0,0-4.5,16.8,154.49,154.49,0,0,0-4.7,25.3c-.2,1.7-.3,3.4-.4,5.2l-.1.1a56.21,56.21,0,0,1-5.3,4.4c-1.8,1.3-3.9,3-6.1,3.4-2.9.5-4.4-2.3-4.4-4.7a27.22,27.22,0,0,1,1.1-7.5,118.54,118.54,0,0,1,4.8-14.2,105.27,105.27,0,0,0,4.7-14.4c1-4.6,1.6-9.6.5-14.2a10,10,0,0,0-7.9-8c-4.4-1-8.9.6-12.7,2.7a37.27,37.27,0,0,0-11.5,10.5,43.21,43.21,0,0,0,.3-5c-.1-3.7-1.8-8.7-6.3-8.2-5.5.6-7,7.2-8.4,11.6-1.8,5.9-3.4,11.9-4.8,17.9-.7,3-1.3,6-1.9,9-.2.5-.3,1.1-.5,1.6-1.2,3.7-2.3,7.4-3.4,11-.7,1.3-1.4,2.7-2.1,4a122.66,122.66,0,0,1-6.4,11.1c-2.2,3.2-5.3,6-9.4,5.7s-7.5-3.4-9.4-6.9c-2.1-3.8-3-8.3-3.6-12.6a77.89,77.89,0,0,1-.7-12.8l.9-.3c9.8-2.8,19.3-8,25.8-16a30.72,30.72,0,0,0,6.4-12.1c.8-3.2,1.7-9.5-2.9-10.4-2.3-.4-4.6,1-6.4,2.3a27.88,27.88,0,0,0-5.2,5.1c-3.3,3.9-6.2,8.1-10.2,11.5a44,44,0,0,1-4.1,3.1c-.2.1-.5.2-.7.3-.8.2-1.6.4-2.3.5a242.72,242.72,0,0,1,5.8-26.9,192.09,192.09,0,0,1,9.4-26.7c1.9-4.3,4-8.5,6.1-12.6,1-2,2.1-3.9,3.1-5.9a8.69,8.69,0,0,0,1-5c-.7-3.9-5.2-4-8.2-3.8a34.21,34.21,0,0,0-12.1,3.4,66.34,66.34,0,0,0-26.4,22.9,124,124,0,0,0-13.2,23.6,313.17,313.17,0,0,0-11.2,31.2c-.1.4-.3.8-.4,1.2a89.46,89.46,0,0,0-19.2,3.8c-6.5,2.2-13.8,5.2-17.9,11a23.4,23.4,0,0,0-2.4,3.1,30.4,30.4,0,0,0-4.7,14.7A37.13,37.13,0,0,0,1.74,142c1.5,4.4,4.3,8.4,8.7,10.3.3.1.7.3,1,.4a10.66,10.66,0,0,0,1.9.7c5.4,1.8,11.5.6,16.4-2.2.1-.1.3-.2.4-.3,13.3-6.8,23.1-24.9,29.4-40.3,4.4.4,8.9.7,13.3.7a17,17,0,0,0,2.2-.1c.4,31.7,8.7,38.7,19.3,41.4.6.2,1.3.3,2,.5a21.75,21.75,0,0,0,15.1-3.5,24.26,24.26,0,0,0,2-1.4c-.4,3.8-.2,7.8,2.9,10.3,3.7,3,8.6.8,11.2-2.5a23.57,23.57,0,0,0,3.2-6.8l1.5-4.8v-.1a205.76,205.76,0,0,1,7.7-30.3c.6-1.8,1.3-3.6,2-5.4h0c1-2.6,1.6-4,1.6-4h0a82.74,82.74,0,0,1,6.2-11.3,14.79,14.79,0,0,1,5.5-5.6,5.16,5.16,0,0,1,4.2-.6c1.3.5,1.8,1.8,2.1,3.1a25.69,25.69,0,0,1-.1,8.3,58.42,58.42,0,0,1-1.8,8.3c-1.5,5.5-3.4,10.8-4.7,16.3-1.2,5.1-2.3,11.4,0,16.4a12.05,12.05,0,0,0,11.2,6.8c5.4-.3,10.1-3.9,14.2-7.3,1.1-.9,2.2-1.9,3.2-2.8a11.68,11.68,0,0,0,2.9,3.8c5.3,4.3,12.9,3.7,18.7.9a34,34,0,0,0,4.5-2.8,121.65,121.65,0,0,1-4,13,50.5,50.5,0,0,0-8.7-1.1,40.08,40.08,0,0,0-17.1,2.9c-9.6,3.9-18.9,12.2-19.9,23.2a19.44,19.44,0,0,0,3.8,13.8,17.4,17.4,0,0,0,12.9,6.4c11.5.7,20.6-7.6,27.2-16.1a99.82,99.82,0,0,0,8.8-13.4c1.8.5,3.7,1,5.5,1.6,12.3,3.7,24.8,8.6,37.9,7.8,5.5-.3,11.1-1.6,15.7-4.6a17.36,17.36,0,0,0,5.1-5c1.4-2.1,2.6-4.9,1.6-7.4C276.74,154.05,270.24,154.45,266.24,155.05Zm-232.5-29.5c-1.1,2.7-2.4,5.3-3.7,7.9a47.24,47.24,0,0,1-4.3,7.2c-1.4,1.9-3.5,4-6.1,3.7s-4.4-2.9-5.4-5.2c-3.8-8.8,1.4-19.1,9-24a36.12,36.12,0,0,1,16.2-5.3A162.58,162.58,0,0,1,33.74,125.55ZM76,94.05c-1.5,0-3,0-4.4-.1-1.9-.1-3.8-.1-5.6-.2,3.1-7.9,4.2-15.2,7.2-23.6A103.06,103.06,0,0,1,90,41C85.64,51.45,78.34,71.65,76,94.05Zm118.6,77.4a66.17,66.17,0,0,1-5.9,7,27.74,27.74,0,0,1-6.7,5.6,9.47,9.47,0,0,1-4.3,1.1,7,7,0,0,1-1.4-.3,6.76,6.76,0,0,1-4.3-6.4c-.1-5.8,5.4-10.4,10.2-12.5,5.2-2.3,11-2.7,16.6-2.3a1.27,1.27,0,0,1,.6.1A47.18,47.18,0,0,1,194.64,171.45Z"/><path class="cls-1" d="M460.64,124.75a55.4,55.4,0,0,1-5.8,10.7,24,24,0,0,1-4.4,4.6c-1.8,1.4-4.1,2.9-6.4,3.1-2.8.2-4.3-2.6-4.1-5.1s1.4-5.3,2.4-7.6c2-4.5,4.3-8.8,6.7-13.2,4.7-8.6,10.2-17.9,10.8-28,.5-8.2-3.4-17.6-12-19.9a16.69,16.69,0,0,0-14,2.8l-1.8,1.5a17.09,17.09,0,0,0,0-3.2,8,8,0,0,0-1-4.3c-1.5-2.2-4.2-2.1-6.4-1.1a11.29,11.29,0,0,0-2.2,1.1,9.12,9.12,0,0,0-1.7,1.7c-1.8,2.6-3.9,7.1-6.3,14.8-5.7,18.9-7.8,21.4-7.8,21.4a39.67,39.67,0,0,1-2.9,2.9c-1.6,1.2-3.5,1.8-5.1.2-1.2-1.2-1.4-3-1.4-4.6s.1-3.5.2-5.2c.1-1.5.3-3,.5-4.5.5-2,.9-4.1,1.3-6.2.4-2.4.8-4.9,1-7.4a10.31,10.31,0,0,0-1.3-6.7,5.81,5.81,0,0,0-4.4-2.7c-2-.1-3.6,1.2-4.8,2.7a24.08,24.08,0,0,0-3.4,6.8,43,43,0,0,0-2,7c-.6,2.1-1.2,4.2-1.7,6.2-1.4,5.6-2.7,11.3-4.4,16.8a58.08,58.08,0,0,1-3.2,8.2,29.9,29.9,0,0,1-4.5,7.5c-.6.7-1.6,1.3-2.1.2a9.28,9.28,0,0,1-.3-2.4c0-1.6.1-3.3.2-4.9a81.68,81.68,0,0,1,1.6-9.9c1.3-6.4,2.9-12.8,3.3-19.4.2-2.9.5-6.4-1.1-9a4.59,4.59,0,0,0-5.9-2.1c-2.4,1.2-3.5,4.3-4.6,6.6-1.5,3.1-2.9,6.3-4.2,9.4-2.7,6.4-5.3,12.8-8.2,19.2-1.3,2.9-2.6,5.9-4.2,8.7a17,17,0,0,1-2.6,3.4,6.1,6.1,0,0,1-1.6,1.2c-.9.5-1.6.5-1.8-.6-.3-1.4.3-3.1.6-4.5.3-1.8.7-3.5,1.1-5.3q1-5.1,2.4-10.2c1.7-6.7,4-13.3,5.7-20,.2-.8.4-1.7.6-2.5a60.12,60.12,0,0,0,1.4-6.1c.6-3.2,1-8.2-2.4-10.2a3.53,3.53,0,0,0-1.9-.6c-.2,0-.4-.1-.6-.1-6.5-.4-8.4,4.7-9.8,7.6a50.28,50.28,0,0,0-2.7,8.7,2.35,2.35,0,0,0-.2.8,36.67,36.67,0,0,1-13.3,9.4c-.1-.7-.1-1.4-.2-2.1-1.1-7.7-5.6-15.2-13.3-17.9-4.1-1.4-8.9-1.5-12.4,1.2a19.43,19.43,0,0,0-6.4,9.5,20.4,20.4,0,0,0-.5,11.2,69.25,69.25,0,0,0-10.3,22.2c0,.2-.1.3-.1.5-1,1.2-2,2.3-3,3.4a83.58,83.58,0,0,1-6.1,5.8c-2.1,1.8-4.7,4.5-7.7,4.1a3.2,3.2,0,0,1-1.9-1,8.34,8.34,0,0,1-1-3.5,40.9,40.9,0,0,1,.6-9.9c.6-3.5,1.4-7,2.3-10.4,1.9-7,4-13.8,6.2-20.7,3.7-11.6,5.1-16.3,9.3-27.7,4.1,1,8.2,1.9,12.4,2.5a85.46,85.46,0,0,0,8.8,1.7,54.43,54.43,0,0,0,16.1-.4c10.4-1.9,20.1-6.6,28.6-12.7,7.6-5.4,15.7-12.6,17.4-22.3.6-3.6.5-9.8-4.5-9.8-2.4,0-4.6,1.4-6.5,2.8a44.31,44.31,0,0,0-5.5,5.1c-10.3,13.3-18.4,18.2-30.5,21.7-9,2.6-22.1,1-28.3,0H283c-.2,0-.4-.1-.7-.1-.8-.2-1.6-.3-2.4-.5l6.9-17.7a31.38,31.38,0,0,0,2.1-10.1,9.08,9.08,0,0,0-3.2-7.3,6.21,6.21,0,0,0-6.9-.6,16.46,16.46,0,0,0-5.9,6.1,30.2,30.2,0,0,0-3.8,8.4l-4.3,14.3c-.4,1.2-.8,2.3-1.2,3.5-1.3-.1-2.6-.3-3.9-.3a45.29,45.29,0,0,0-14.6,2.1c-.1,0-.2.1-.3.1a31.6,31.6,0,0,0-9.7,4,18.66,18.66,0,0,0-5.1,5c-1.1,1.6-1.9,3.9-1.3,5.8a4.3,4.3,0,0,0,4.6,2.6c2.5-.2,4.6-2,6.7-3.2a32.38,32.38,0,0,1,6-2.7,32.9,32.9,0,0,1,4.3-.9,44.44,44.44,0,0,1,8.9-.3l-5.5,18.1c-4.1,13.5-8.2,27.3-10.2,41.3a68.74,68.74,0,0,0-.8,10.1,31.24,31.24,0,0,0,1.2,9.6,14.14,14.14,0,0,0,10.2,9.6,20,20,0,0,0,14-1.8,29,29,0,0,0,8.1-6.7,19.64,19.64,0,0,0,3,5.5c2.6,3.2,6.8,5.7,11,5.4s7.8-2.8,10.7-5.6c6.3-6,10.3-14,13.4-22,1.3-3.3,2.5-6.7,3.5-10.2a32.43,32.43,0,0,0,9.9-5.2c-1.3,5.5-2.3,11.1-3.1,16.8-.9,7-2.5,15.6,2.9,21.3a9.46,9.46,0,0,0,8.7,2.9c3.5-.7,6.7-2.9,9.5-5a54.63,54.63,0,0,0,11.4-12.1,20.73,20.73,0,0,0,1.6,8.5c2.1,4.9,6.9,8.8,12.4,8.3a11.76,11.76,0,0,0,6.9-3.7,47.33,47.33,0,0,0,5.5-7.2,83.28,83.28,0,0,0,7.9-16.8c.1-.3.2-.5.3-.8a7.61,7.61,0,0,0,1.2,1.9c1.6,1.9,4.1,3.3,6.6,2.9a5.91,5.91,0,0,0,2.4-.9,128.61,128.61,0,0,0-5.4,20c-.5,3.2-.9,6.9.5,9.9a4.88,4.88,0,0,0,6.8,2.4c3-1.4,5.1-4.5,6.6-7.4a82.41,82.41,0,0,0,4.3-10.7c2-5.9,4.1-11.8,6.1-17.8a95.9,95.9,0,0,1,8.8-20.3,28,28,0,0,1,3.2-5.2c1.7-2.2,4.2-4.3,7.1-4.4,3.4-.2,5,3.4,4.8,6.3a28.42,28.42,0,0,1-2.4,8.5,112.27,112.27,0,0,1-7.8,14.5,92.64,92.64,0,0,0-7.3,14.4c-1.9,5.4-2.9,11.4-1.3,17,1.5,4.9,5.2,9.2,10.3,10.3,5.5,1.2,11.2-.9,16-3.6,10.5-6,17.6-16.2,23.7-26.3l2.4-4.2v-.1l1.7-2.6-19.1,4A6.13,6.13,0,0,1,460.64,124.75Zm-158.5-4.9a65.77,65.77,0,0,1-3.8,6.3c-1.3,1.9-2.9,4.6-5.1,5.4a3,3,0,0,1-3.6-1,5.75,5.75,0,0,1-.6-3.2,32.56,32.56,0,0,1,1.9-7.6,70,70,0,0,1,5.9-13.1,25.35,25.35,0,0,0,9.8,2.5A67.22,67.22,0,0,1,302.14,119.85Zm1.5-25.3c-4.1-1.5-7.6-7-3.6-10.6a4.35,4.35,0,0,1,6,.1c1.7,1.6,2.4,4,2.9,6.3a27.37,27.37,0,0,1,.4,5A15.45,15.45,0,0,1,303.64,94.55Z"/><path class="cls-1" d="M646.64,127.75a7.6,7.6,0,0,1-7.6,7.6,7.49,7.49,0,0,1-7.5-7.5,7.55,7.55,0,0,1,15.1-.1Zm-1.6,0a5.91,5.91,0,0,0-5.9-5.9,5.85,5.85,0,0,0-5.9,5.9,5.91,5.91,0,0,0,5.9,5.9A5.85,5.85,0,0,0,645,127.75Zm-4.1,1,1.6,2.4h-1.8l-1.2-2.1h-1.7v2.1h-1.6V124h3.1c1.9,0,3,.9,3,2.5A2.34,2.34,0,0,1,640.94,128.75Zm-1.6-1a1.3,1.3,0,1,0,0-2.6h-1.5v2.6Z"/></g></g></svg>