<?xml version="1.0" encoding="UTF-8"?>
<svg width="113px" height="129px" viewBox="0 0 113 129" version="1.1" xmlns="http://www.w3.org/2000/svg" xmlns:xlink="http://www.w3.org/1999/xlink">
    <!-- Generator: Sketch 50.2 (55047) - http://www.bohemiancoding.com/sketch -->
    <title>Buy</title>
    <desc>Created with Sketch.</desc>
    <defs></defs>
    <g id="Updated-design" stroke="none" stroke-width="1" fill="none" fill-rule="evenodd">
        <g id="Homepage" transform="translate(-395.000000, -858.000000)" fill="#4A82B0">
            <path d="M505.68492,889.184026 L492.590518,889.184026 L492.590518,883.617753 C492.590518,869.558077 481.118393,858.103159 467.047182,858.103159 C461.220754,858.103159 455.927913,860.127649 451.624791,863.407237 C447.295849,860.067473 441.959977,858 436.086215,858 C422.002094,858 410.52997,869.45062 410.52997,883.523191 L410.52997,889.179728 L397.310777,889.179728 C396.024143,889.179728 395,890.211315 395,891.487905 L395,984.691823 C395,985.968413 396.024143,987 397.310777,987 L428.400838,987 L505.689223,987 C506.975857,987 508,985.968413 508,984.691823 L508,891.487905 C507.995697,890.215614 506.967251,889.184026 505.68492,889.184026 L505.68492,889.184026 Z M487.960358,883.617753 L487.960358,889.184026 L461.629551,889.184026 L461.629551,883.527489 C461.629551,876.994102 459.090708,871.092563 455.04147,866.570772 C458.44524,864.168033 462.563328,862.732407 467.051485,862.732407 C478.570944,862.728109 487.960358,872.098361 487.960358,883.617753 L487.960358,883.617753 Z M446.121097,889.184026 L446.121097,883.617753 C446.121097,878.227709 448.238233,873.357757 451.598972,869.648341 C454.912376,873.34916 456.995088,878.17613 456.995088,883.527489 L456.995088,889.184026 L446.121097,889.184026 L446.121097,889.184026 Z M415.160129,883.523191 C415.160129,871.995202 424.549543,862.629248 436.086215,862.629248 C440.608797,862.629248 444.769916,864.107857 448.186596,866.54928 C444.077113,871.083966 441.486634,877.032787 441.486634,883.617753 L441.486634,889.184026 L428.392232,889.184026 L415.155826,889.184026 L415.155826,883.523191 L415.160129,883.523191 Z M412.84505,972.428828 L422.802475,982.37505 L402.891927,982.37505 L412.84505,972.428828 L412.84505,972.428828 Z M415.160129,968.203619 L415.160129,893.804678 L426.085758,893.804678 L426.085758,979.108357 L415.160129,968.203619 L415.160129,968.203619 Z M410.525666,893.808976 L410.525666,968.207917 L399.625857,979.112655 L399.625857,893.808976 L410.525666,893.808976 L410.525666,893.808976 Z M503.365537,982.37505 L430.715918,982.37505 L430.715918,893.808976 L441.490937,893.808976 L441.490937,907.021891 C441.490937,908.307077 442.523686,909.338665 443.81032,909.338665 C445.096954,909.338665 446.121097,908.307077 446.121097,907.021891 L446.121097,893.808976 L487.960358,893.808976 L487.960358,907.021891 C487.960358,908.307077 488.993107,909.338665 490.271135,909.338665 C491.557768,909.338665 492.590518,908.307077 492.590518,907.021891 L492.590518,893.808976 L503.365537,893.808976 L503.365537,982.37505 L503.365537,982.37505 Z" id="Buy"></path>
        </g>
    </g>
</svg>