<?xml version="1.0" encoding="UTF-8"?>
<svg width="18px" height="16px" viewBox="0 0 18 16" version="1.1" xmlns="http://www.w3.org/2000/svg" xmlns:xlink="http://www.w3.org/1999/xlink">
    <!-- Generator: Sketch 47.1 (45422) - http://www.bohemiancoding.com/sketch -->
    <title>Shopping cart 3</title>
    <desc>Created with Sketch.</desc>
    <defs>
        <path d="M1400.666,109.958911 L1400.666,109.958911 L1390.70272,109.958911 C1390.27942,109.958911 1389.93498,109.61563 1389.93498,109.188847 C1389.93498,108.983574 1390.01442,108.792218 1390.15939,108.646092 C1390.30435,108.501125 1390.49803,108.419363 1390.7033,108.419363 L1390.7033,108.419363 L1390.70446,108.419363 L1400.568,108.419363 C1400.71877,108.419363 1400.84866,108.317307 1400.88519,108.17234 L1402.5297,101.597805 C1402.55347,101.500388 1402.53201,101.398331 1402.46939,101.317149 C1402.4085,101.238867 1402.31283,101.192478 1402.21251,101.192478 L1389.3151,101.192478 L1388.83033,99.2470234 C1388.79438,99.1020566 1388.66391,99 1388.51198,99 L1386.32589,99 C1386.14497,99 1386,99.148446 1386,99.3258854 C1386,99.506804 1386.14497,99.6517708 1386.32589,99.6517708 L1388.258,99.6517708 L1388.74509,101.597225 L1390.30551,107.845295 C1390.07995,107.91082 1389.86713,108.012876 1389.69723,108.183937 C1389.42991,108.451256 1389.28147,108.810194 1389.28147,109.187108 C1389.28147,109.638824 1389.50472,110.023856 1389.83292,110.284796 C1389.79001,110.317849 1389.73666,110.334665 1389.69607,110.376415 C1389.42991,110.643734 1389.28147,111.000352 1389.28147,111.379586 C1389.28147,112.165306 1389.91932,112.802 1390.70156,112.802 L1390.7062,112.802 C1391.08544,112.802 1391.44263,112.654714 1391.71169,112.383916 C1391.97901,112.116597 1392.12746,111.759979 1392.1263,111.379586 C1392.1263,111.089652 1392.01728,110.83683 1391.8671,110.610682 L1399.50279,110.610682 C1399.3497,110.842629 1399.24475,111.09777 1399.24475,111.379586 C1399.24475,112.165306 1399.88144,112.802 1400.66484,112.802 L1400.67064,112.802 C1401.04871,112.802 1401.40707,112.654714 1401.67381,112.383916 C1401.94113,112.116597 1402.08958,111.759979 1402.08958,111.379586 C1402.08958,110.599084 1401.45172,109.96239 1400.666,109.958911 L1400.666,109.958911 Z M1401.79384,101.845409 L1400.31228,107.767593 L1390.9596,107.767593 L1389.47862,101.845409 L1401.79384,101.845409 L1401.79384,101.845409 Z M1391.47279,111.384804 C1391.47395,111.588918 1391.39335,111.779114 1391.24838,111.925241 C1391.10341,112.070208 1390.9109,112.151969 1390.70562,112.151969 L1390.69982,112.151969 C1390.27826,112.151969 1389.9344,111.807528 1389.9344,111.381905 C1389.9344,111.176052 1390.01384,110.984116 1390.15881,110.839149 C1390.30377,110.694183 1390.49629,110.612421 1390.70562,110.612421 C1391.13009,110.612421 1391.47279,110.959182 1391.47279,111.384804 L1391.47279,111.384804 Z M1401.21166,111.925241 C1401.06669,112.070208 1400.87301,112.151969 1400.67006,112.151969 L1400.6631,112.151969 C1400.24038,112.151969 1399.89652,111.807528 1399.89652,111.381905 C1399.89652,111.176052 1399.97596,110.984116 1400.12093,110.839149 C1400.26589,110.694183 1400.46073,110.612421 1400.67006,110.612421 C1401.09278,110.612421 1401.43549,110.959182 1401.43549,111.384804 C1401.43607,111.588918 1401.35778,111.779114 1401.21166,111.925241 L1401.21166,111.925241 Z" id="path-1"></path>
    </defs>
    <g id="Symbols" stroke="none" stroke-width="1" fill="none" fill-rule="evenodd">
        <g id="Navigation-3" transform="translate(-1385.000000, -98.000000)">
            <g id="Shopping-cart-3">
                <use fill="#4A4A4A" fill-rule="evenodd" xlink:href="#path-1"></use>
                <path stroke="#4A4A4A" stroke-width="0.25" d="M1399.28472,110.735682 L1392.08602,110.735682 C1392.19427,110.945258 1392.2513,111.156147 1392.2513,111.379205 C1392.25255,111.791844 1392.09167,112.180712 1391.80036,112.472019 C1391.50858,112.76569 1391.11978,112.927 1390.7062,112.927 L1390.70156,112.927 C1389.84951,112.927 1389.15647,112.233566 1389.15647,111.379586 C1389.15647,110.968193 1389.31737,110.579604 1389.60645,110.289281 C1389.61326,110.28228 1389.61995,110.275903 1389.62679,110.269918 C1389.32911,109.981037 1389.15647,109.601042 1389.15647,109.187108 C1389.15647,108.776761 1389.31828,108.386111 1389.60855,108.09585 C1389.75663,107.946757 1389.93833,107.839069 1390.1559,107.762097 L1388.62383,101.627585 L1388.16044,99.7767708 L1386.32589,99.7767708 C1386.07593,99.7767708 1385.875,99.5758396 1385.875,99.3258854 C1385.875,99.0784116 1386.07692,98.875 1386.32589,98.875 L1388.51198,98.875 C1388.72084,98.875 1388.90175,99.0157107 1388.95162,99.2168001 L1389.41278,101.067478 L1402.21251,101.067478 C1402.35129,101.067478 1402.48342,101.131588 1402.56836,101.240799 C1402.65391,101.35169 1402.68402,101.492664 1402.65096,101.628137 L1401.0064,108.202885 C1400.95579,108.403736 1400.77568,108.544363 1400.568,108.544363 L1390.7033,108.544363 C1390.53224,108.544363 1390.37006,108.612195 1390.24813,108.734127 C1390.12613,108.857102 1390.05998,109.01692 1390.05998,109.188847 C1390.05998,109.545864 1390.34773,109.833911 1390.70272,109.833911 L1400.666,109.833911 L1400.66656,109.833912 C1401.52087,109.837695 1402.21458,110.530037 1402.21458,111.379586 C1402.21458,111.792418 1402.05347,112.181039 1401.76286,112.471634 C1401.47381,112.76509 1401.0839,112.927 1400.67064,112.927 L1400.66484,112.927 C1399.81202,112.927 1399.11975,112.233951 1399.11975,111.379586 C1399.11975,111.159073 1399.17676,110.94643 1399.28472,110.735682 Z M1401.63372,101.970409 L1389.63873,101.970409 L1391.05719,107.642593 L1400.2147,107.642593 L1401.63372,101.970409 Z M1391.34779,111.385515 L1391.34779,111.384804 C1391.34779,111.027389 1391.06022,110.737421 1390.70562,110.737421 C1390.53128,110.737421 1390.37003,110.804701 1390.2472,110.927538 C1390.12564,111.049098 1390.0594,111.209255 1390.0594,111.381905 C1390.0594,111.738104 1390.34691,112.026969 1390.69982,112.026969 L1390.70562,112.026969 C1390.87636,112.026969 1391.03747,111.959373 1391.15964,111.837205 C1391.28248,111.713382 1391.34875,111.554634 1391.34779,111.385515 Z M1401.12327,111.836852 C1401.24558,111.714539 1401.31097,111.556397 1401.31049,111.384804 C1401.31049,111.027616 1401.02315,110.737421 1400.67006,110.737421 C1400.49507,110.737421 1400.33168,110.805171 1400.20932,110.927538 C1400.08776,111.049098 1400.02152,111.209255 1400.02152,111.381905 C1400.02152,111.738255 1400.30918,112.026969 1400.6631,112.026969 L1400.67006,112.026969 C1400.83906,112.026969 1401.00117,111.958954 1401.12327,111.836852 Z"></path>
            </g>
        </g>
    </g>
</svg>