<?xml version="1.0" encoding="UTF-8"?>
<svg width="18px" height="16px" viewBox="0 0 18 16" version="1.1" xmlns="http://www.w3.org/2000/svg" xmlns:xlink="http://www.w3.org/1999/xlink">
    <!-- Generator: Sketch 47.1 (45422) - http://www.bohemiancoding.com/sketch -->
    <title>User 2</title>
    <desc>Created with Sketch.</desc>
    <defs>
        <path d="M1238.91733,108.459333 C1240.75893,108.459333 1242.25707,107.003852 1242.25707,105.213407 L1242.25707,102.245926 C1242.25707,100.455481 1240.75893,99 1238.91733,99 C1237.0768,99 1235.57867,100.455481 1235.57867,102.245926 L1235.57867,105.213407 C1235.57867,107.00437 1237.0768,108.459333 1238.91733,108.459333 L1238.91733,108.459333 Z M1236.15253,102.246444 C1236.15253,100.765037 1237.392,99.5584444 1238.91733,99.5584444 C1240.4432,99.5584444 1241.6832,100.764519 1241.6832,102.246444 L1241.6832,105.213926 C1241.6832,106.695333 1240.44373,107.902963 1238.91733,107.902963 C1237.39253,107.902963 1236.15253,106.695852 1236.15253,105.213926 L1236.15253,102.246444 L1236.15253,102.246444 Z M1231.58987,112.353407 C1231.6688,111.526889 1232.12853,109.100741 1234.77333,107.807037 C1235.67147,109.182148 1237.23467,110.025778 1238.91733,110.025778 C1240.6,110.025778 1242.1632,109.182148 1243.06133,107.807037 C1245.7072,109.100222 1246.16533,111.526889 1246.2448,112.353407 L1231.58987,112.353407 L1231.58987,112.353407 Z M1243.06827,107.191556 C1242.9328,107.130889 1242.77227,107.182222 1242.69867,107.309259 C1241.93173,108.640815 1240.48213,109.46837 1238.91733,109.46837 C1237.35253,109.46837 1235.90293,108.640815 1235.136,107.309259 C1235.06187,107.182741 1234.89973,107.129852 1234.7664,107.191556 C1231.04427,108.840444 1231,112.594519 1231,112.631852 C1231,112.707037 1231.0304,112.777556 1231.08427,112.829407 C1231.13867,112.882296 1231.2112,112.911333 1231.28747,112.911333 L1246.54773,112.911333 C1246.624,112.911333 1246.6976,112.881778 1246.75093,112.829407 C1246.80533,112.777556 1246.83413,112.707037 1246.83413,112.631852 C1246.8336,112.594519 1246.7888,108.840444 1243.06827,107.191556 L1243.06827,107.191556 Z" id="path-1"></path>
    </defs>
    <g id="Symbols" stroke="none" stroke-width="1" fill="none" fill-rule="evenodd">
        <g id="Navigation-3" transform="translate(-1230.000000, -98.000000)">
            <g id="User-2">
                <use fill="#4A4A4A" fill-rule="evenodd" xlink:href="#path-1"></use>
                <path stroke="#4A4A4A" stroke-width="0.25" d="M1238.91733,108.584333 C1237.008,108.584333 1235.45367,107.073679 1235.45367,105.213407 L1235.45367,102.245926 C1235.45367,100.385997 1237.00818,98.875 1238.91733,98.875 C1240.82738,98.875 1242.38207,100.38583 1242.38207,102.245926 L1242.38207,105.213407 C1242.38207,107.073503 1240.82738,108.584333 1238.91733,108.584333 Z M1236.27753,102.246444 L1236.27753,105.213926 C1236.27753,106.626412 1237.4612,107.777963 1238.91733,107.777963 C1240.37454,107.777963 1241.5582,106.626412 1241.5582,105.213926 L1241.5582,102.246444 C1241.5582,100.834019 1240.37459,99.6834444 1238.91733,99.6834444 C1237.46082,99.6834444 1236.27753,100.834324 1236.27753,102.246444 Z M1231.7289,112.228407 L1246.10569,112.228407 C1245.90904,110.566955 1245.03877,108.952168 1243.104,107.967987 C1242.17153,109.327212 1240.59966,110.150778 1238.91733,110.150778 C1237.23502,110.150778 1235.66316,109.327224 1234.73069,107.968017 C1232.79638,108.95279 1231.92436,110.570055 1231.7289,112.228407 Z M1243.11936,107.077473 L1243.11891,107.077276 C1244.36629,107.630096 1245.2927,108.449368 1245.93952,109.463549 C1246.37777,110.15072 1246.66246,110.886259 1246.82408,111.622556 C1246.88097,111.881756 1246.91839,112.123251 1246.94012,112.341227 C1246.95343,112.474882 1246.95832,112.569323 1246.95913,112.631852 C1246.95913,112.741627 1246.91608,112.844687 1246.83851,112.918597 C1246.76171,112.994013 1246.65663,113.036333 1246.54773,113.036333 L1231.28747,113.036333 C1231.1786,113.036333 1231.07483,112.994572 1230.99758,112.919464 C1230.91909,112.843916 1230.875,112.740828 1230.875,112.631852 C1230.875,112.158018 1231.00648,111.349926 1231.37192,110.468178 C1231.97784,109.006226 1233.05509,107.812944 1234.7139,107.078114 C1234.90543,106.98948 1235.13704,107.063788 1235.24432,107.246872 C1235.98876,108.539384 1237.39689,109.34337 1238.91733,109.34337 C1240.43778,109.34337 1241.8459,108.539384 1242.59051,107.246596 C1242.69635,107.063913 1242.92575,106.990767 1243.11936,107.077473 Z"></path>
            </g>
        </g>
    </g>
</svg>