<?xml version="1.0" encoding="UTF-8"?>
<svg width="16px" height="14px" viewBox="0 0 16 14" version="1.1" xmlns="http://www.w3.org/2000/svg" xmlns:xlink="http://www.w3.org/1999/xlink">
    <!-- Generator: Sketch 47.1 (45422) - http://www.bohemiancoding.com/sketch -->
    <title>wishlist</title>
    <desc>Created with Sketch.</desc>
    <defs></defs>
    <g id="Symbols" stroke="none" stroke-width="1" fill="none" fill-rule="evenodd">
        <g id="Navigation-3" transform="translate(-1351.000000, -99.000000)" fill-rule="nonzero" fill="#232323">
            <g id="iconmonstr-favorite-6" transform="translate(1351.834133, 99.468834)">
                <path d="M10.7732687,1.23010604 C12.238325,1.23010604 13.5330116,2.19204896 13.5330116,4.12823586 C13.5330116,7.18074399 9.51794546,9.23133075 7.38063622,11.4688936 C5.24332698,9.23133075 1.22887593,7.18135904 1.22887593,4.12885091 C1.22887593,2.24986394 2.46390239,1.23010604 3.98861882,1.23010604 C5.94448742,1.23010604 6.96916575,3.47135923 7.38063622,4.49726767 C7.79087658,3.47258934 8.81555491,1.23010604 10.7732687,1.23010604 Z M10.7732687,0 C9.4361434,0 8.10024825,0.653186305 7.38063622,2.10286627 C6.66102419,0.653186305 5.32512903,2.73138409e-16 3.98861882,2.73138409e-16 C1.8955934,2.73138409e-16 0.000615053018,1.46997671 0.000615053018,4.11408964 C0.000615053018,8.58552508 6.09148509,10.8415395 7.38063622,13.5311664 C8.66978734,10.8415395 14.7612724,8.58552508 14.7612724,4.11408964 C14.7612724,1.2934565 12.6614814,0 10.7732687,0 Z" id="wishlist"></path>
            </g>
        </g>
    </g>
</svg>